<svg width="138" height="138" viewBox="0 0 138 138" fill="none" xmlns="http://www.w3.org/2000/svg">
<g filter="url(#filter0_d_0_1)">
<circle cx="69" cy="65" r="65" fill="#10B981"/>
</g>
<path d="M57.4584 43.06L52.1984 57H50.0984L44.8384 43.06H46.7784L51.1584 55.08L55.5384 43.06H57.4584ZM61.2741 43.06V57H59.4541V43.06H61.2741ZM66.1959 44.54V49.2H71.2759V50.7H66.1959V55.5H71.8759V57H64.3759V43.04H71.8759V44.54H66.1959ZM92.1498 43.06L88.1098 57H86.0698L82.8298 45.78L79.4698 57L77.4498 57.02L73.5498 43.06H75.4898L78.5298 54.88L81.8898 43.06H83.9298L87.1298 54.84L90.1898 43.06H92.1498ZM36.0592 77.14C36.0592 78.3 35.6592 79.2667 34.8592 80.04C34.0726 80.8 32.8659 81.18 31.2392 81.18H28.5592V87H26.7392V73.06H31.2392C32.8126 73.06 34.0059 73.44 34.8192 74.2C35.6459 74.96 36.0592 75.94 36.0592 77.14ZM31.2392 79.68C32.2526 79.68 32.9992 79.46 33.4792 79.02C33.9592 78.58 34.1992 77.9533 34.1992 77.14C34.1992 75.42 33.2126 74.56 31.2392 74.56H28.5592V79.68H31.2392ZM45.6613 87L42.3413 81.3H40.1413V87H38.3213V73.06H42.8213C43.8746 73.06 44.7613 73.24 45.4813 73.6C46.2146 73.96 46.7613 74.4467 47.1213 75.06C47.4813 75.6733 47.6613 76.3733 47.6613 77.16C47.6613 78.12 47.3813 78.9667 46.8213 79.7C46.2746 80.4333 45.4479 80.92 44.3413 81.16L47.8413 87H45.6613ZM40.1413 79.84H42.8213C43.8079 79.84 44.5479 79.6 45.0413 79.12C45.5346 78.6267 45.7813 77.9733 45.7813 77.16C45.7813 76.3333 45.5346 75.6933 45.0413 75.24C44.5613 74.7867 43.8213 74.56 42.8213 74.56H40.1413V79.84ZM56.8092 87.14C55.5159 87.14 54.3359 86.84 53.2692 86.24C52.2026 85.6267 51.3559 84.78 50.7292 83.7C50.1159 82.6067 49.8092 81.38 49.8092 80.02C49.8092 78.66 50.1159 77.44 50.7292 76.36C51.3559 75.2667 52.2026 74.42 53.2692 73.82C54.3359 73.2067 55.5159 72.9 56.8092 72.9C58.1159 72.9 59.3026 73.2067 60.3692 73.82C61.4359 74.42 62.2759 75.26 62.8892 76.34C63.5026 77.42 63.8092 78.6467 63.8092 80.02C63.8092 81.3933 63.5026 82.62 62.8892 83.7C62.2759 84.78 61.4359 85.6267 60.3692 86.24C59.3026 86.84 58.1159 87.14 56.8092 87.14ZM56.8092 85.56C57.7826 85.56 58.6559 85.3333 59.4292 84.88C60.2159 84.4267 60.8292 83.78 61.2692 82.94C61.7226 82.1 61.9492 81.1267 61.9492 80.02C61.9492 78.9 61.7226 77.9267 61.2692 77.1C60.8292 76.26 60.2226 75.6133 59.4492 75.16C58.6759 74.7067 57.7959 74.48 56.8092 74.48C55.8226 74.48 54.9426 74.7067 54.1692 75.16C53.3959 75.6133 52.7826 76.26 52.3292 77.1C51.8892 77.9267 51.6692 78.9 51.6692 80.02C51.6692 81.1267 51.8892 82.1 52.3292 82.94C52.7826 83.78 53.3959 84.4267 54.1692 84.88C54.9559 85.3333 55.8359 85.56 56.8092 85.56ZM73.2319 73.06V83.36C73.2319 84.5067 72.8785 85.4267 72.1719 86.12C71.4652 86.8 70.5319 87.14 69.3719 87.14C68.1985 87.14 67.2585 86.7933 66.5519 86.1C65.8452 85.3933 65.4919 84.4333 65.4919 83.22H67.3119C67.3252 83.9 67.4985 84.4533 67.8319 84.88C68.1785 85.3067 68.6919 85.52 69.3719 85.52C70.0519 85.52 70.5585 85.32 70.8919 84.92C71.2252 84.5067 71.3919 83.9867 71.3919 83.36V73.06H73.2319ZM78.6373 74.54V79.2H83.7173V80.7H78.6373V85.5H84.3173V87H76.8173V73.04H84.3173V74.54H78.6373ZM86.3913 80.02C86.3913 78.66 86.6979 77.44 87.3113 76.36C87.9246 75.2667 88.7579 74.4133 89.8113 73.8C90.8779 73.1867 92.0579 72.88 93.3513 72.88C94.8713 72.88 96.1979 73.2467 97.3313 73.98C98.4646 74.7133 99.2913 75.7533 99.8113 77.1H97.6313C97.2446 76.26 96.6846 75.6133 95.9513 75.16C95.2313 74.7067 94.3646 74.48 93.3513 74.48C92.3779 74.48 91.5046 74.7067 90.7313 75.16C89.9579 75.6133 89.3513 76.26 88.9113 77.1C88.4713 77.9267 88.2513 78.9 88.2513 80.02C88.2513 81.1267 88.4713 82.1 88.9113 82.94C89.3513 83.7667 89.9579 84.4067 90.7313 84.86C91.5046 85.3133 92.3779 85.54 93.3513 85.54C94.3646 85.54 95.2313 85.32 95.9513 84.88C96.6846 84.4267 97.2446 83.78 97.6313 82.94H99.8113C99.2913 84.2733 98.4646 85.3067 97.3313 86.04C96.1979 86.76 94.8713 87.12 93.3513 87.12C92.0579 87.12 90.8779 86.82 89.8113 86.22C88.7579 85.6067 87.9246 84.76 87.3113 83.68C86.6979 82.6 86.3913 81.38 86.3913 80.02ZM111.1 73.06V74.54H107.3V87H105.48V74.54H101.66V73.06H111.1Z" fill="black"/>
<defs>
<filter id="filter0_d_0_1" x="0" y="0" width="138" height="138" filterUnits="userSpaceOnUse" color-interpolation-filters="sRGB">
<feFlood flood-opacity="0" result="BackgroundImageFix"/>
<feColorMatrix in="SourceAlpha" type="matrix" values="0 0 0 0 0 0 0 0 0 0 0 0 0 0 0 0 0 0 127 0" result="hardAlpha"/>
<feOffset dy="4"/>
<feGaussianBlur stdDeviation="2"/>
<feComposite in2="hardAlpha" operator="out"/>
<feColorMatrix type="matrix" values="0 0 0 0 0 0 0 0 0 0 0 0 0 0 0 0 0 0 0.25 0"/>
<feBlend mode="normal" in2="BackgroundImageFix" result="effect1_dropShadow_0_1"/>
<feBlend mode="normal" in="SourceGraphic" in2="effect1_dropShadow_0_1" result="shape"/>
</filter>
</defs>
</svg>
